<?xml version="1.0" encoding="utf-8"?>
<!-- Generator: Adobe Illustrator 14.0.0, SVG Export Plug-In . SVG Version: 6.00 Build 43363)  -->
<!DOCTYPE svg PUBLIC "-//W3C//DTD SVG 1.1//EN" "http://www.w3.org/Graphics/SVG/1.1/DTD/svg11.dtd">
<svg version="1.1" id="レイヤー_1" xmlns="http://www.w3.org/2000/svg" xmlns:xlink="http://www.w3.org/1999/xlink" x="0px"
	 y="0px" width="129.999px" height="44.752px" viewBox="0 0 129.999 44.752" enable-background="new 0 0 129.999 44.752"
	 xml:space="preserve">
<path fill="#04518E" d="M50.922,0.645c-8.955-2.894-21.346,4.342-31.114,13.929c-4.087,4.012-7.514,9.697-10.11,14.959
	C3.737,28.2,0,25.97,0,25.97v1.538c3.278,1.26,6.383,2.113,9.361,2.695c-3.402,7.036-5.263,13.133-5.11,13.133h2.985
	c1.124-4.463,2.696-8.719,4.579-12.699c15.014,2.148,26.204-3.559,34.765-8.969C57.253,14.924,59.876,3.539,50.922,0.645
	 M32.561,27.779c-7.682,3.058-14.815,3.121-20.438,2.216C20.594,12.535,35.146,0.638,45.224,1.369
	C63.313,2.725,50.288,20.724,32.561,27.779"/>
<path fill="#04518E" d="M48.788,29.307c0,0.882-0.714,1.596-1.595,1.596c-0.881,0-1.595-0.714-1.595-1.596
	c0-0.881,0.714-1.594,1.595-1.594C48.074,27.713,48.788,28.426,48.788,29.307"/>
<path fill="#04518E" d="M128.344,12.674c4.433-9.768-0.813-8.502-6.603-4.613s-15.104,19.537-16.551,27.496
	c-0.119,0.651-0.181,1.237-0.218,1.795c-1.579,1.189-3.019,2.228-4.215,3.09c-6.151,4.432-6.784,0.543-4.703-2.08
	c2.08-2.623,1.989-3.618,1.537-4.252c-0.543-3.89-6.783,0.182-9.226,1.99c-2.441,1.809-11.035,6.15-13.477,5.879
	s0.633-5.427,2.352-8.141c1.719-2.713-0.633-2.08-2.17-1.175c-1.537,0.903-9.407,6.782-9.407,6.782l1.356-2.894
	c1.447-3.166-1.266-2.985-2.17-2.714c-0.905,0.271-3.528,2.081-7.146,4.794c3.889-6.692,0.814-5.879-0.452-5.427
	c-1.266,0.451-4.703,2.984-7.326,5.697c-2.623,2.715-6.964,4.795-8.05,3.348c-1.085-1.447,3.166-7.598,3.709-9.227
	c0.542-1.627-2.171,1.086-3.347,2.353c-1.176,1.267-5.608,6.422-9.045,7.326c-3.437,0.905-4.668,0.219-3.346-2.353
	c1.269-2.466,4.794-2.531,2.804-4.027c-1.99-1.495-1.817-3.161-2.171-4.564c-0.216-0.855-2.852,2.073-4.042,3.637
	c-1.337,1.758-7.557,5.787-7.557,5.787l1.423,1.328c1.808-0.873,8.458-7.314,8.458-7.314c0,0.904,1.899,1.99,1.899,1.99
	l-2.491,2.984c-3.215,4.251,1.794,4.906,3.486,4.439c3.035-0.834,8.502-4.621,8.502-4.621c-2.716,3.976,1.356,4.975,3.708,4.527
	s11.939-9.23,13.386-9.863c1.447-0.633-0.814,2.984-2.623,5.518c-1.809,2.532-1.718,3.527,0.362,3.165s2.171-3.347,6.693-6.603
	s2.532,1.719,1.447,3.347s-2.532,3.437,0.452,2.442c2.985-0.996,11.003-7.236,11.003-7.236c-2.646,2.703-3.135,6.965-3.135,6.965
	c0.092,5.969,14.744-3.889,14.744-3.889c-4.433,4.793-1.086,6.602,1.627,5.535c2.713-1.067,4.795-3.274,4.795-3.274
	c-0.814,4.703,2.205,5.063,7.326,2.713c0.783-0.36,1.877-1.205,5.158-3.435c0.779,3.902,4.221,4.297,6.327,3.996
	c3.515-0.502,8.69-3.463,8.69-3.463l-2.235-1.813c0,0-3.162,3.763-7.54,3.63c-2.091-0.064-2.945-1.544-2.88-4.384
	C115.067,31.035,125.222,19.554,128.344,12.674 M86.599,41.833c-3.072,0.591,5.848-6.617,8.92-7.268
	C97.587,34.388,89.671,41.242,86.599,41.833 M118.032,14.122c8.864-9.949,12.572-9.678,6.965,1.628
	c-3.906,7.876-11.145,14.604-17.258,19.464C108.803,28.979,112.802,19.993,118.032,14.122"/>
</svg>
